<?xml version="1.0" encoding="utf-8"?>
<svg xmlns="http://www.w3.org/2000/svg" viewBox="0 0 48 48" width="144" height="144">
  <path d="M24 4C21.346797 4 18.804347 4.5198865 16.482422 5.4628906L16.482422 5.4609375C13.499924 6.6709332 10.892651 8.5883961 8.8320312 10.990234L8.7949219 9.9335938 A 2.0002 2.0002 0 0 0 6.6953125 7.9785156 A 2.0002 2.0002 0 0 0 4.7988281 10.074219L5.0078125 16.070312 A 2.0002 2.0002 0 0 0 7.0761719 17.998047L13.072266 17.789062 A 2.0002 2.0002 0 1 0 12.933594 13.792969L11.652344 13.837891C13.333164 11.798685 15.502985 10.17546 17.986328 9.1679688L17.988281 9.1679688C19.842309 8.4149728 21.867203 8 24 8C32.860089 8 40 15.139911 40 24C40 32.860089 32.860089 40 24 40C15.139911 40 8 32.860089 8 24 A 2.0002 2.0002 0 1 0 4 24C4 35.021911 12.978089 44 24 44C35.021911 44 44 35.021911 44 24C44 12.978089 35.021911 4 24 4 z" fill="#FFFFFF" />
</svg>