<?xml version="1.0" encoding="utf-8"?>
<svg xmlns="http://www.w3.org/2000/svg" viewBox="0 0 48 48" width="144" height="144">
  <path d="M10.5 6C8.5850452 6 7 7.5850452 7 9.5L7 38.5C7 40.414955 8.5850452 42 10.5 42L12.5 42C14.414955 42 16 40.414955 16 38.5L16 9.5C16 7.5850452 14.414955 6 12.5 6L10.5 6 z M 23.917969 6.3007812C21.993624 6.1275587 20 7.5969932 20 9.7441406L20 38.255859C20 41.119312 23.546112 42.778426 25.744141 40.943359L42.638672 26.839844C44.385876 25.379692 44.385876 22.620308 42.638672 21.160156L25.742188 7.0566406C25.192573 6.5981366 24.559417 6.3585221 23.917969 6.3007812 z" fill="#FFFFFF" />
</svg>